<?xml version="1.0" standalone="no"?>
<!DOCTYPE svg PUBLIC "-//W3C//DTD SVG 20010904//EN"
 "http://www.w3.org/TR/2001/REC-SVG-20010904/DTD/svg10.dtd">
<svg version="1.0" xmlns="http://www.w3.org/2000/svg"
 width="50.000000pt" height="50.000000pt" viewBox="0 0 50.000000 50.000000"
 preserveAspectRatio="xMidYMid meet">
<metadata>
Created by potrace 1.16, written by Peter Selinger 2001-2019
</metadata>
<g transform="translate(0.000000,50.000000) scale(0.100000,-0.100000)"
fill="#000000" stroke="none">
<path d="M440 480 c0 -13 -7 -20 -20 -20 -18 0 -20 -7 -20 -70 l0 -70 50 0 50
0 0 70 c0 63 -2 70 -20 70 -13 0 -20 7 -20 20 0 11 -4 20 -10 20 -5 0 -10 -9
-10 -20z"/>
<path d="M170 350 c0 -13 -7 -20 -20 -20 -18 0 -20 -7 -20 -70 l0 -70 50 0 50
0 0 70 c0 63 -2 70 -20 70 -13 0 -20 7 -20 20 0 11 -4 20 -10 20 -5 0 -10 -9
-10 -20z"/>
<path d="M320 330 c0 -13 -7 -20 -20 -20 -18 0 -20 -7 -20 -70 l0 -70 50 0 50
0 0 70 c0 63 -2 70 -20 70 -13 0 -20 7 -20 20 0 11 -4 20 -10 20 -5 0 -10 -9
-10 -20z"/>
<path d="M440 295 c0 -8 5 -15 10 -15 6 0 10 7 10 15 0 8 -4 15 -10 15 -5 0
-10 -7 -10 -15z"/>
<path d="M40 200 c0 -13 -7 -20 -20 -20 -18 0 -20 -7 -20 -70 l0 -70 50 0 50
0 0 70 c0 63 -2 70 -20 70 -13 0 -20 7 -20 20 0 11 -4 20 -10 20 -5 0 -10 -9
-10 -20z m40 -90 c0 -49 -1 -50 -30 -50 -29 0 -30 1 -30 50 0 49 1 50 30 50
29 0 30 -1 30 -50z"/>
<path d="M170 165 c0 -8 5 -15 10 -15 6 0 10 7 10 15 0 8 -4 15 -10 15 -5 0
-10 -7 -10 -15z"/>
<path d="M320 145 c0 -8 5 -15 10 -15 6 0 10 7 10 15 0 8 -4 15 -10 15 -5 0
-10 -7 -10 -15z"/>
<path d="M40 15 c0 -8 5 -15 10 -15 6 0 10 7 10 15 0 8 -4 15 -10 15 -5 0 -10
-7 -10 -15z"/>
</g>
</svg>
